<?xml version="1.0" encoding="utf-8"?>
<?xml-stylesheet type="text/xsl" href="rss1.xsl"?>
<rss version="2.0" xmlns:atom="http://www.w3.org/2005/Atom" xmlns:content="http://purl.org/rss/1.0/modules/content/" xmlns:dc="http://purl.org/dc/elements/1.1/" xmlns:media="http://search.yahoo.com/mrss/">
<channel>
 <title>Getty</title>
 <link>http://www.gettyimg.com/</link>
 <atom:link href="http://www.gettyimg.com/" rel="self" type="application/rss+xml" />

 
                <item>
                <title><![CDATA[【Music Videos】One Direction - Live While We're Young (Dave Aude Remix) (Gamerfronts Video Edit)]]></title>
                <link><![CDATA[https://sharemania.us/threads/one-direction-live-while-were-young-dave-aude-remix-gamerfronts-video-edit.249272/]]></link>
                <description><![CDATA[<article>
<blockquote class="messageText SelectQuoteContainer ugc baseHtml">
<img src="https://i.imgur.com/cGbvrug.jpeg" class="bbCodeImage LbImage" alt="[​IMG]" data-url="https://i.imgur.com/cGbvrug.jpeg" style=""> <br>
<b>One Direction - Live While We're Young (Dave Aude Remix) (Gamerfronts Video Edit)</b><br>
<b>
<div class="ToggleTriggerAnchor bbCodeSpoilerContainer">
<button type="button" class="button bbCodeSpoilerButton ToggleTrigger Tooltip JsOnly" data-target="> .SpoilerTarget"><span>Spoiler: <span class="SpoilerTitle">Media Info</span></span></button>
<div class="SpoilerTarget bbCodeSpoilerText">General<br>
Complete name : E:\Downloads\Music Videos\One Direction - Live While We're Young (Dave Aude Remix) (Gamerfronts Video Edit).mp4<br>
Format : MPEG-4<br>
Format profile : Base Media / Version 2<br>
Codec ID : mp42 (mp42/mp41)<br>
File size : 861 MiB<br>
Duration : 5 min 39 s<br>
Overall bit rate mode : Variable<br>
Overall bit rate : 21.2 Mb/s<br>
Movie name : Live While We're Young (Dave Aude Remix) (Gamerfronts Video Edit)<br>
Album/Performer : One Direction<br>
Performer : One Direction<br>
Genre : Dance<br>
Recorded date : 2012<br>
Encoded date : UTC 2024-07-08 05:41:31<br>
Tagged date : UTC 2024-07-08 05:52:32<br>
©TIM : 00:00:00:00<br>
©TSC : 24000<br>
©TSZ : 1001<br>
<br>
Video<br>
ID : 1<br>
Format : AVC<br>
Format/Info : Advanced Video Codec<br>
Format profile : High@L4.2<br>
Format settings, CABAC : Yes<br>
Format settings, RefFrames : 3 frames<br>
Format settings, GOP : M=1, N=30<br>
Codec ID : avc1<br>
Codec ID/Info : Advanced Video Coding<br>
Duration : 5 min 39 s<br>
Bit rate : 20.9 Mb/s<br>
Width : 1 920 pixels<br>
Height : 1 080 pixels<br>
Display aspect ratio : 16:9<br>
Frame rate mode : Constant<br>
Frame rate : 23.976 (24000/1001) FPS<br>
Color space : YUV<br>
Chroma subsampling : 4:2:0<br>
Bit depth : 8 bits<br>
Scan type : Progressive<br>
Bits/(Pixel*Frame) : 0.421<br>
Stream size : 848 MiB (98%)<br>
Language : English<br>
Encoded date : UTC 2024-07-08 05:42:02<br>
Tagged date : UTC 2024-07-08 05:42:02<br>
<br>
Audio<br>
ID : 2<br>
Format : AAC<br>
Format/Info : Advanced Audio Codec<br>
Format profile : LC<br>
Codec ID : 40<br>
Duration : 5 min 39 s<br>
Source duration : 5 min 39 s<br>
Bit rate mode : Variable<br>
Bit rate : 317 kb/s<br>
Maximum bit rate : 374 kb/s<br>
Channel(s) : 2 channels<br>
Channel positions : Front: L R<br>
Sampling rate : 48.0 kHz<br>
Frame rate : 46.875 FPS (1024 SPF)<br>
Compression mode : Lossy<br>
Stream size : 12.9 MiB (1%)<br>
Source stream size : 12.9 MiB (1%)<br>
Language : English<br>
Encoded date : UTC 2024-07-08 05:42:02<br>
Tagged date : UTC 2024-07-08 05:42:02</div>
</div><b>For </b><span style="font-size: 15px">One Direction - Live While We Are Young SD (DJDX Intro Edit DJDX V-Edit) (Extended) (vjstreet Pool)</span><b><b> link</b></b><br>
<b><b><a href="https://sharemania.us/threads/one-direction-live-while-we-are-young-sd-djdx-intro-edit-djdx-v-edit-extended-vjstreet-pool.223035/" class="internalLink">https://sharemania.us/threads/one-d...it-djdx-v-edit-extended-vjstreet-pool.223035/</a></b><br>
<br>
<b>[/URL]
<div class="bbCodeBlock bbCodeVfcHH HiddenContent">
<div class="attribution type">Hidden Content:</div>
<blockquote>You must reply before you can see the hidden data contained here.</blockquote>
</div></b></b></b>
<div class="messageTextEndMarker">&nbsp;</div>
</blockquote>
</article>]]></description>
                <author><![CDATA[gamerfronts]]></author>
                </item>

                
                <item>
                <title><![CDATA[【Requests】[REQ AUD] - Jessie J's EP in ALAC]]></title>
                <link><![CDATA[https://sharemania.us/threads/jessie-js-ep-in-alac.249271/]]></link>
                <description><![CDATA[<article>
<blockquote class="messageText SelectQuoteContainer ugc baseHtml">
Can someone share the ALAC version of these two EPs please<br>
<br>
<a href="https://music.apple.com/de/album/up-feat-jessie-j-ep/1445282853" target="_blank" class="externalLink" rel="nofollow">Up (feat. Jessie J) - EP</a><br>
<a href="https://music.apple.com/de/album/auf-den-d%C3%A4chern-jessie-j-single/1445863795" target="_blank" class="externalLink" rel="nofollow">Auf den Dächern: Jessie J - Single</a><br>
<br>
The 2nd one with the videos included<br>
It is not available in my country<br>
thnks ♥
<div class="messageTextEndMarker">&nbsp;</div>
</blockquote>
</article>]]></description>
                <author><![CDATA[itunesboy]]></author>
                </item>

                </channel></rss>